<svg width="206" height="206" viewBox="0 0 206 206" fill="none" xmlns="http://www.w3.org/2000/svg">
<g clip-path="url(#clip0_2354_8033)">
<rect width="206" height="206" rx="24" fill="#06B6D4"/>
<path d="M59.0892 157C57.4157 157 56.579 156.163 56.579 154.49V42.0657C56.579 40.3922 57.4157 39.5555 59.0892 39.5555H83.654C85.3275 39.5555 86.1642 40.3922 86.1642 42.0657V68.0649C86.1642 70.3361 86.1045 72.6671 85.9849 75.0578C85.9849 77.329 85.9252 79.6599 85.8056 82.0507C85.6861 84.3219 85.5666 86.6528 85.447 89.0436H85.8056C87.8377 85.577 89.9296 82.1702 92.0813 78.8232C94.2329 75.3566 96.6237 71.8901 99.2535 68.4235L120.77 40.9899C121.368 40.0336 122.324 39.5555 123.639 39.5555H153.403C154.36 39.5555 155.017 39.8543 155.376 40.452C155.734 40.9302 155.555 41.6474 154.838 42.6037L118.798 87.0712L159.141 153.952C159.619 154.908 159.679 155.685 159.321 156.283C158.962 156.761 158.364 157 157.527 157H127.584C126.149 157 125.133 156.462 124.535 155.386L98.7156 110.56L86.1642 125.263V154.49C86.1642 156.163 85.3275 157 83.654 157H59.0892Z" fill="black"/>
</g>
<defs>
<clipPath id="clip0_2354_8033">
<rect width="206" height="206" rx="24" fill="white"/>
</clipPath>
</defs>
</svg>
